<?xml version="1.0" encoding="UTF-8"?>
<svg xmlns="http://www.w3.org/2000/svg" xmlns:xlink="http://www.w3.org/1999/xlink" width="500pt" height="500pt" viewBox="0 0 500 500" version="1.1">
<defs>
<clipPath id="clip1">
  <path d="M 128 206 L 459 206 L 459 460 L 128 460 Z M 128 206 "/>
</clipPath>
<clipPath id="clip2">
  <path d="M 344.261719 269.671875 L 344.261719 291.871094 L 337.183594 294.980469 L 330.566406 298.355469 L 324.402344 301.992188 L 318.695312 305.894531 L 313.445312 310.0625 L 308.652344 314.492188 L 304.316406 319.1875 L 300.4375 324.144531 L 297.011719 329.367188 L 294.046875 334.855469 L 291.535156 340.605469 L 289.480469 346.617188 L 287.882812 352.894531 L 286.742188 359.4375 L 286.058594 366.246094 L 285.828125 373.3125 L 286.226562 382.125 L 287.414062 390.605469 L 289.398438 398.753906 L 292.171875 406.570312 L 295.742188 414.054688 L 300.105469 421.207031 L 305.261719 428.03125 L 311.207031 434.519531 L 317.71875 440.449219 L 324.558594 445.585938 L 331.722656 449.9375 L 339.21875 453.492188 L 347.046875 456.261719 L 355.199219 458.238281 L 363.683594 459.421875 L 372.496094 459.816406 L 381.269531 459.421875 L 389.71875 458.238281 L 397.847656 456.261719 L 405.648438 453.492188 L 413.128906 449.9375 L 420.28125 445.585938 L 427.113281 440.449219 L 433.621094 434.519531 L 439.570312 428.035156 L 444.722656 421.226562 L 449.085938 414.101562 L 452.65625 406.652344 L 455.429688 398.878906 L 457.414062 390.789062 L 458.601562 382.375 L 459 373.640625 L 458.773438 366.742188 L 458.085938 360.082031 L 456.945312 353.660156 L 455.347656 347.476562 L 453.292969 341.53125 L 450.78125 335.824219 L 447.816406 330.355469 L 444.390625 325.125 L 440.511719 320.132812 L 436.175781 315.378906 L 431.382812 310.867188 L 426.132812 306.589844 L 420.425781 302.550781 L 414.265625 298.753906 L 407.644531 295.191406 L 400.570312 291.871094 L 400.570312 269.671875 L 396.242188 267.695312 L 391.429688 266 L 386.125 264.59375 L 380.332031 263.46875 L 380.332031 260.042969 L 380.160156 255.921875 L 379.648438 251.96875 L 378.792969 248.179688 L 377.597656 244.558594 L 376.058594 241.101562 L 374.179688 237.808594 L 371.957031 234.683594 L 369.394531 231.726562 L 366.585938 229.027344 L 363.621094 226.691406 L 360.503906 224.714844 L 357.234375 223.09375 L 353.8125 221.835938 L 350.238281 220.9375 L 346.507812 220.398438 L 342.628906 220.21875 L 337.144531 220.625 L 331.386719 221.839844 L 325.351562 223.867188 L 319.042969 226.707031 L 312.457031 230.355469 L 305.597656 234.816406 L 298.460938 240.085938 L 291.050781 246.167969 L 282.402344 253.675781 L 274.75 259.988281 L 267.457031 265.460938 L 260.527344 270.089844 L 253.960938 273.875 L 247.757812 276.820312 L 241.914062 278.925781 L 236.433594 280.1875 L 231.316406 280.609375 L 227.765625 280.28125 L 223.808594 279.300781 L 219.441406 277.671875 L 214.667969 275.386719 L 212.953125 274.773438 L 210.75 274.570312 L 207.464844 274.945312 L 205.117188 276.078125 L 203.710938 277.964844 L 203.242188 280.609375 L 203.796875 283.699219 L 205.464844 286.605469 L 208.246094 289.328125 L 212.136719 291.871094 L 216.742188 294.011719 L 221.664062 295.542969 L 226.902344 296.460938 L 232.457031 296.765625 L 238.722656 296.292969 L 245.351562 294.867188 L 252.347656 292.496094 L 259.714844 289.175781 L 267.445312 284.90625 L 275.546875 279.691406 L 284.011719 273.523438 L 292.847656 266.410156 L 302.152344 258.574219 L 308.570312 253.371094 L 314.617188 248.863281 L 320.28125 245.046875 L 325.570312 241.925781 L 330.484375 239.5 L 335.019531 237.765625 L 339.175781 236.722656 L 342.953125 236.375 L 347.925781 236.800781 L 352.238281 238.070312 L 355.882812 240.1875 L 358.867188 243.148438 L 361.1875 246.960938 L 362.847656 251.617188 L 363.839844 257.121094 L 364.171875 263.46875 L 353.890625 266.164062 Z M 266.894531 211.566406 L 260.367188 206.183594 L 220.214844 259.0625 Z M 210.421875 206.183594 L 202.097656 206.183594 L 206.015625 254.003906 Z M 152.480469 206.183594 L 145.789062 211.242188 L 191.492188 259.226562 Z M 137.464844 260.207031 L 136.160156 267.878906 L 184.144531 272.285156 Z M 128 317.003906 L 131.917969 323.695312 L 186.921875 286.972656 Z M 178.597656 340.179688 L 186.429688 342.957031 L 198.507812 296.601562 Z M 233.761719 359.765625 L 241.433594 356.992188 L 214.175781 296.277344 Z M 233.761719 359.765625 "/>
</clipPath>
</defs>
<g id="surface1">
<rect x="0" y="0" width="500" height="500" style="fill:rgb(96.078491%,85.882568%,0%);fill-opacity:1;stroke:none;"/>
<g clip-path="url(#clip1)" clip-rule="nonzero">
<g clip-path="url(#clip2)" clip-rule="nonzero">
<path style=" stroke:none;fill-rule:nonzero;fill:rgb(19.607544%,20.391846%,18.823242%);fill-opacity:1;" d="M 126 462 L 461 462 L 461 204 L 126 204 Z M 126 462 "/>
</g>
</g>
</g>
</svg>
